<svg width="154" height="106" viewBox="0 0 154 106" fill="none" xmlns="http://www.w3.org/2000/svg">
<path d="M78.1666 31.6667H63.9999C61.8364 31.6661 59.7156 31.0639 57.8745 29.9274C56.0335 28.791 54.5448 27.1649 53.5747 25.231C52.6046 23.2971 52.1914 21.1316 52.3812 18.9764C52.5711 16.8212 53.3565 14.7612 54.6497 13.0266C55.9429 11.2921 57.6929 9.95132 59.7043 9.15414C61.7156 8.35696 63.909 8.13479 66.0393 8.51244C68.1697 8.89009 70.1531 9.85269 71.7678 11.2927C73.3826 12.7327 74.5651 14.5933 75.1833 16.6667H78.1666C80.1557 16.6667 82.0634 17.4568 83.4699 18.8634C84.8764 20.2699 85.6666 22.1775 85.6666 24.1667C85.6666 26.1558 84.8764 28.0634 83.4699 29.47C82.0634 30.8765 80.1557 31.6667 78.1666 31.6667Z" stroke="#8C8E90" stroke-width="4" stroke-linecap="round" stroke-linejoin="round"/>
<g clip-path="url(#clip0_2831_45899)">
<path d="M137.338 37.9794L123.654 34.3128C122.8 34.084 121.891 34.2038 121.125 34.6458C120.359 35.0878 119.801 35.8159 119.572 36.6698L112.67 62.4279C112.441 63.2818 112.561 64.1916 113.003 64.9573C113.445 65.7229 114.173 66.2815 115.027 66.5103L134.346 71.6867C135.2 71.9155 136.109 71.7958 136.875 71.3537C137.641 70.9117 138.199 70.1836 138.428 69.3297L143.82 49.2062L137.338 37.9794Z" stroke="#8C8E90" stroke-width="4" stroke-linecap="round" stroke-linejoin="round"/>
<path d="M136.533 37.7637L133.945 47.423L143.604 50.0112" stroke="#8C8E90" stroke-width="4" stroke-linecap="round" stroke-linejoin="round"/>
<path d="M135.008 56.3351L122.129 52.8842" stroke="#8C8E90" stroke-width="4" stroke-linecap="round" stroke-linejoin="round"/>
<path d="M133.283 62.7746L120.404 59.3237" stroke="#8C8E90" stroke-width="4" stroke-linecap="round" stroke-linejoin="round"/>
<path d="M127.074 47.3074L123.855 46.4447" stroke="#8C8E90" stroke-width="4" stroke-linecap="round" stroke-linejoin="round"/>
</g>
<g clip-path="url(#clip1_2831_45899)">
<path d="M15.5719 81.825L41.3299 74.9232C42.1838 74.6944 42.9119 74.1357 43.3539 73.3701C43.7959 72.6045 43.9157 71.6946 43.6869 70.8407L39.3733 54.7419C39.1445 53.888 38.5858 53.1599 37.8202 52.7179C37.0546 52.2759 36.1447 52.1561 35.2908 52.3849L22.5245 55.8056C21.9934 55.945 21.4362 55.951 20.9022 55.8232C20.3683 55.6953 19.8742 55.4376 19.4638 55.0728L17.6261 53.4947C17.2158 53.1299 16.7217 52.8722 16.1877 52.7443C15.6538 52.6165 15.0965 52.6225 14.5655 52.7619L8.23867 54.4571C7.38474 54.6859 6.65668 55.2446 6.21465 56.0102C5.77262 56.7758 5.65284 57.6857 5.88165 58.5396L11.4894 79.468C11.9639 81.2389 13.801 82.2995 15.5719 81.825Z" stroke="#8C8E90" stroke-width="4" stroke-linecap="round" stroke-linejoin="round"/>
</g>
<path d="M77.9999 91C91.2548 91 102 80.2548 102 67C102 53.7452 91.2548 43 77.9999 43C64.7451 43 53.9999 53.7452 53.9999 67C53.9999 80.2548 64.7451 91 77.9999 91Z" stroke="#8C8E90" stroke-width="4" stroke-linecap="round" stroke-linejoin="round"/>
<path d="M108 97L94.95 83.95" stroke="#8C8E90" stroke-width="4" stroke-linecap="round" stroke-linejoin="round"/>
<path d="M85.5 60.1L71.1 74.5" stroke="#8C8E90" stroke-width="4" stroke-linecap="round" stroke-linejoin="round"/>
<path d="M71.1 60.1L85.5 74.5" stroke="#8C8E90" stroke-width="4" stroke-linecap="round" stroke-linejoin="round"/>
<defs>
<clipPath id="clip0_2831_45899">
<rect width="40" height="40" fill="white" transform="translate(114.858 28.5049) rotate(15)"/>
</clipPath>
<clipPath id="clip1_2831_45899">
<rect width="40" height="40" fill="white" transform="translate(0.505066 51.353) rotate(-15)"/>
</clipPath>
</defs>
</svg>
